<svg width="80" height="80" viewBox="0 0 80 80" fill="none" xmlns="http://www.w3.org/2000/svg">
<g clip-path="url(#clip0_407_997)">
<circle cx="8" cy="36.1901" r="4" fill="#0069FF"/>
<path d="M2.41861 46.0144C2.41861 43.4573 4.49153 41.3844 7.0486 41.3844H8.95141C11.5085 41.3844 13.5814 43.4573 13.5814 46.0144V46.2569C13.5814 47.1093 12.8904 47.8002 12.0381 47.8002H3.96194C3.10958 47.8002 2.41861 47.1093 2.41861 46.2569V46.0144Z" fill="#0069FF"/>
</g>
<g clip-path="url(#clip1_407_997)">
<path fill-rule="evenodd" clip-rule="evenodd" d="M16.1992 39.9999C16.1992 39.6685 16.4678 39.3999 16.7992 39.3999H31.1992C31.5306 39.3999 31.7992 39.6685 31.7992 39.9999C31.7992 40.3313 31.5306 40.5999 31.1992 40.5999H16.7992C16.4678 40.5999 16.1992 40.3313 16.1992 39.9999Z" fill="#0069FF"/>
<path fill-rule="evenodd" clip-rule="evenodd" d="M26.7753 35.5756C27.0097 35.3413 27.3896 35.3413 27.6239 35.5756L31.6239 39.5756C31.8582 39.81 31.8582 40.1899 31.6239 40.4242L27.6239 44.4242C27.3896 44.6585 27.0097 44.6585 26.7753 44.4242C26.541 44.1899 26.541 43.81 26.7753 43.5756L30.3511 39.9999L26.7753 36.4242C26.541 36.1899 26.541 35.81 26.7753 35.5756Z" fill="#0069FF"/>
</g>
<g clip-path="url(#clip2_407_997)">
<path fill-rule="evenodd" clip-rule="evenodd" d="M40 39.0001C41.5519 39.0001 42.81 37.742 42.81 36.1901C42.81 34.6381 41.5519 33.3801 40 33.3801C38.4481 33.3801 37.19 34.6381 37.19 36.1901C37.19 37.742 38.4481 39.0001 40 39.0001ZM40 40.1901C42.2091 40.1901 44 38.3992 44 36.1901C44 33.9809 42.2091 32.1901 40 32.1901C37.7909 32.1901 36 33.9809 36 36.1901C36 38.3992 37.7909 40.1901 40 40.1901Z" fill="#0069FF"/>
<path fill-rule="evenodd" clip-rule="evenodd" d="M40.9514 42.5744H39.0486C37.1487 42.5744 35.6086 44.1145 35.6086 46.0144V46.2569C35.6086 46.452 35.7668 46.6102 35.9619 46.6102H44.0381C44.2332 46.6102 44.3914 46.452 44.3914 46.2569V46.0144C44.3914 44.1145 42.8513 42.5744 40.9514 42.5744ZM39.0486 41.3844C36.4915 41.3844 34.4186 43.4573 34.4186 46.0144V46.2569C34.4186 47.1093 35.1096 47.8002 35.9619 47.8002H44.0381C44.8904 47.8002 45.5814 47.1093 45.5814 46.2569V46.0144C45.5814 43.4573 43.5085 41.3844 40.9514 41.3844H39.0486Z" fill="#0069FF"/>
</g>
<g clip-path="url(#clip3_407_997)">
<path fill-rule="evenodd" clip-rule="evenodd" d="M56 39.0001C57.5519 39.0001 58.81 37.742 58.81 36.1901C58.81 34.6381 57.5519 33.3801 56 33.3801C54.4481 33.3801 53.19 34.6381 53.19 36.1901C53.19 37.742 54.4481 39.0001 56 39.0001ZM56 40.1901C58.2091 40.1901 60 38.3992 60 36.1901C60 33.9809 58.2091 32.1901 56 32.1901C53.7909 32.1901 52 33.9809 52 36.1901C52 38.3992 53.7909 40.1901 56 40.1901Z" fill="#0069FF"/>
<path fill-rule="evenodd" clip-rule="evenodd" d="M56.9514 42.5744H55.0486C53.1487 42.5744 51.6086 44.1145 51.6086 46.0144V46.2569C51.6086 46.452 51.7668 46.6102 51.9619 46.6102H60.0381C60.2332 46.6102 60.3914 46.452 60.3914 46.2569V46.0144C60.3914 44.1145 58.8513 42.5744 56.9514 42.5744ZM55.0486 41.3844C52.4915 41.3844 50.4186 43.4573 50.4186 46.0144V46.2569C50.4186 47.1093 51.1096 47.8002 51.9619 47.8002H60.0381C60.8904 47.8002 61.5814 47.1093 61.5814 46.2569V46.0144C61.5814 43.4573 59.5085 41.3844 56.9514 41.3844H55.0486Z" fill="#0069FF"/>
</g>
<g clip-path="url(#clip4_407_997)">
<path fill-rule="evenodd" clip-rule="evenodd" d="M72 39.0001C73.5519 39.0001 74.81 37.742 74.81 36.1901C74.81 34.6381 73.5519 33.3801 72 33.3801C70.4481 33.3801 69.19 34.6381 69.19 36.1901C69.19 37.742 70.4481 39.0001 72 39.0001ZM72 40.1901C74.2091 40.1901 76 38.3992 76 36.1901C76 33.9809 74.2091 32.1901 72 32.1901C69.7909 32.1901 68 33.9809 68 36.1901C68 38.3992 69.7909 40.1901 72 40.1901Z" fill="#0069FF"/>
<path fill-rule="evenodd" clip-rule="evenodd" d="M72.9514 42.5744H71.0486C69.1487 42.5744 67.6086 44.1145 67.6086 46.0144V46.2569C67.6086 46.452 67.7668 46.6102 67.9619 46.6102H76.0381C76.2332 46.6102 76.3914 46.452 76.3914 46.2569V46.0144C76.3914 44.1145 74.8513 42.5744 72.9514 42.5744ZM71.0486 41.3844C68.4915 41.3844 66.4186 43.4573 66.4186 46.0144V46.2569C66.4186 47.1093 67.1096 47.8002 67.9619 47.8002H76.0381C76.8904 47.8002 77.5814 47.1093 77.5814 46.2569V46.0144C77.5814 43.4573 75.5085 41.3844 72.9514 41.3844H71.0486Z" fill="#0069FF"/>
</g>
<defs>
<clipPath id="clip0_407_997">
<rect width="16" height="16" fill="white" transform="translate(0 32)"/>
</clipPath>
<clipPath id="clip1_407_997">
<rect width="16" height="16" fill="white" transform="translate(16 32)"/>
</clipPath>
<clipPath id="clip2_407_997">
<rect width="16" height="16" fill="white" transform="translate(32 32)"/>
</clipPath>
<clipPath id="clip3_407_997">
<rect width="16" height="16" fill="white" transform="translate(48 32)"/>
</clipPath>
<clipPath id="clip4_407_997">
<rect width="16" height="16" fill="white" transform="translate(64 32)"/>
</clipPath>
</defs>
</svg>
